<?xml version="1.0" encoding="UTF-8" standalone="no"?>
<!-- Created with Inkscape (http://www.inkscape.org/) -->

<svg
   xmlns:dc="http://purl.org/dc/elements/1.1/"
   xmlns:cc="http://creativecommons.org/ns#"
   xmlns:rdf="http://www.w3.org/1999/02/22-rdf-syntax-ns#"
   xmlns:svg="http://www.w3.org/2000/svg"
   xmlns="http://www.w3.org/2000/svg"
   xmlns:sodipodi="http://sodipodi.sourceforge.net/DTD/sodipodi-0.dtd"
   xmlns:inkscape="http://www.inkscape.org/namespaces/inkscape"
   width="300"
   height="300"
   viewBox="0 0 300.00001 300.00001"
   id="svg4213"
   version="1.1"
   inkscape:version="0.91 r13725"
   sodipodi:docname="banan_pi.svg">
  <defs
     id="defs4215" />
  <sodipodi:namedview
     id="base"
     pagecolor="#ffffff"
     bordercolor="#666666"
     borderopacity="1.0"
     inkscape:pageopacity="0.0"
     inkscape:pageshadow="2"
     inkscape:zoom="3.959798"
     inkscape:cx="110.4632"
     inkscape:cy="263.7518"
     inkscape:document-units="px"
     inkscape:current-layer="g4773"
     showgrid="false"
     inkscape:window-width="1366"
     inkscape:window-height="705"
     inkscape:window-x="-8"
     inkscape:window-y="-8"
     inkscape:window-maximized="1"
     showborder="true"
     width="240mm"
     units="px" />
  <metadata
     id="metadata4218">
    <rdf:RDF>
      <cc:Work
         rdf:about="">
        <dc:format>image/svg+xml</dc:format>
        <dc:type
           rdf:resource="http://purl.org/dc/dcmitype/StillImage" />
        <dc:title />
      </cc:Work>
    </rdf:RDF>
  </metadata>
  <g
     inkscape:label="Layer 1"
     inkscape:groupmode="layer"
     id="layer1"
     transform="translate(0,-752.36219)">
    <g
       id="g4773"
       transform="translate(19.971825,-31.30985)"
       style="display:inline">
      <circle
         style="fill:#666666;stroke:#000000;stroke-width:5.3726902;stroke-miterlimit:4;stroke-dasharray:none"
         id="path3346"
         cx="517.8465"
         cy="787.70923"
         r="146.5977"
         transform="matrix(0.90338828,0.42882353,-0.42882353,0.90338828,0,0)" />
      <g
         id="g3348"
         transform="matrix(1.0745381,0,0,1.0745381,-0.42886636,-69.594136)">
        <path
           sodipodi:nodetypes="ccsssssscccssc"
           id="path4157-4"
           d="m 142.5458,873.0834 -9.63864,46.42974 c -1.27833,8.84039 -2.35674,23.61535 -2.17691,29.36533 0.17977,5.75008 3.88711,21.44319 4.76348,24.15624 0.87639,2.71295 7.60725,19.10095 11.84382,23.49869 4.23656,4.398 11.82543,8.8816 17.3422,10.1483 5.51677,1.2665 15.51785,0.1376 19.20527,1.2125 3.68741,1.075 9.89433,3.4138 11.29695,4.6493 1.40263,1.2354 4.11296,4.5258 4.11296,4.5258 l 6.84178,-11.3466 -10.51003,-4.998 c 0,0 -12.62824,-11.94099 -14.01913,-17.42716 -1.39088,-5.48632 -11.60435,-23.33169 -11.80983,-36.29623 -0.0888,-5.6042 8.91693,-54.03719 11.55863,-71.38322"
           style="fill:#ffff00;fill-rule:evenodd;stroke:#000000;stroke-width:5;stroke-linecap:butt;stroke-linejoin:miter;stroke-miterlimit:4;stroke-dasharray:none;stroke-opacity:1"
           inkscape:connector-curvature="0" />
        <path
           sodipodi:nodetypes="cccssscsssccscc"
           id="path4163-6"
           d="m 110.77272,892.63116 c -0.63317,2.29698 -2.17572,8.68691 -2.57943,9.94861 l -0.0928,-0.0184 c -2.60165,12.71996 -9.602788,36.76703 -12.800425,45.0143 -3.65955,9.43858 -11.08117,29.53848 -14.568561,35.31772 -3.487422,5.77934 -17.461086,19.22961 -21.464083,22.90161 -4.003017,3.672 -7.984275,8.6241 -16.246424,9.7517 -1.464023,-0.3205 -4.10006,1.1838 -6.220976,0.966 -1.853186,-0.1904 -3.217806,-2.0407 -4.312939,-3.0464 -2.447885,-2.2478 -1.054548,-5.494 -0.617171,-6.589 2.078274,-5.203 2.076084,-15.10968 6.48155,-22.02083 l 0,0 c 9.806421,-13.70938 13.936813,-30.42506 22.316521,-50.15293 4.328362,-10.18997 4.628016,-21.74504 7.729814,-34.64916 l 2.064535,-10.0281"
           style="fill:#ffff00;fill-rule:evenodd;stroke:#000000;stroke-width:5;stroke-linecap:butt;stroke-linejoin:miter;stroke-miterlimit:4;stroke-dasharray:none;stroke-opacity:1"
           inkscape:connector-curvature="0" />
        <path
           id="path4157"
           style="fill:#ffff00;fill-rule:evenodd;stroke:#000000;stroke-width:5;stroke-linecap:butt;stroke-linejoin:miter;stroke-miterlimit:4;stroke-dasharray:none;stroke-opacity:1"
           d="M 128.1077,855.38581 83.945431,853.4382 c -8.327663,0.16604 -22.091739,1.46366 -27.361094,2.54661 -5.269364,1.08293 -19.182784,7.13964 -21.553903,8.41371 -2.37111,1.27407 -16.484693,10.35561 -19.918691,15.1357 -3.434009,4.7801 -6.4592674,12.80566 -6.8232331,18.32463 -0.363965,5.51897 2.1307111,14.98222 1.6771434,18.70723 -0.453578,3.72502 -1.7045914,10.07897 -2.6383404,11.62664 -0.933739,1.54768 -3.569773,4.68117 -3.569773,4.68117 l 11.4450201,4.8011 3.074054,-10.92318 c 0,0 9.160191,-14.06358 14.010496,-16.27241 4.850315,-2.20882 19.799418,-14.87837 31.709349,-17.12737 5.148353,-0.97218 48.378961,0.0958 64.738321,-0.10141 m 0,0 c 1.9376,-0.0233 3.49825,-0.0645 4.57403,-0.12879 l 2.14686,-0.0897 c 10.54382,0.70235 30.90514,0.11373 38.0521,-0.82108 8.17935,-1.06984 21.72123,-4.18738 26.9858,-5.98959 5.26455,-1.8022 19.93994,-6.68338 26.36366,-10.97445 5.42833,-3.62615 16.74143,-10.88542 19.58014,-20.73891 2.53665,-27.78162 -24.24582,-10.82808 -34.02818,-7.64501 -11.0072,3.49757 -34.05865,7.91075 -46.1227,8.93065 -9.00278,0.7493 -15.99137,0.38164 -26.78294,0.0947 l -11.39585,-0.50263"
           inkscape:connector-curvature="0"
           sodipodi:nodetypes="ccsssssscccssccccsssccccc" />
      </g>
    </g>
  </g>
</svg>
